<mxfile host="app.diagrams.net" modified="2021-03-05T02:31:41.380Z" agent="5.0 (Windows NT 10.0; Win64; x64) AppleWebKit/537.36 (KHTML, like Gecko) Chrome/88.0.4324.190 Safari/537.36" etag="lENYHxQ_8ECuIxZrIZHs" version="14.4.3" type="github">
  <diagram id="3raOUY3oFX_rAmNxmDs3" name="第 1 页">
    <mxGraphModel dx="1422" dy="746" grid="1" gridSize="10" guides="1" tooltips="1" connect="1" arrows="1" fold="1" page="1" pageScale="1" pageWidth="827" pageHeight="1169" math="0" shadow="0">
      <root>
        <mxCell id="0" />
        <mxCell id="1" parent="0" />
        <mxCell id="29HYPzocDJOvQepny2lJ-210" value="" style="rounded=1;whiteSpace=wrap;html=1;fillColor=none;dashed=1;strokeColor=#FF6666;strokeWidth=2;" vertex="1" parent="1">
          <mxGeometry x="114" y="168.42" width="80" height="91.58" as="geometry" />
        </mxCell>
        <mxCell id="29HYPzocDJOvQepny2lJ-112" value="第一层卷积核映射" style="text;html=1;align=center;verticalAlign=middle;resizable=0;points=[];autosize=1;fontSize=10.5;" vertex="1" parent="1">
          <mxGeometry x="197" y="80" width="110" height="20" as="geometry" />
        </mxCell>
        <mxCell id="29HYPzocDJOvQepny2lJ-114" value="" style="whiteSpace=wrap;html=1;aspect=fixed;" vertex="1" parent="1">
          <mxGeometry x="125" y="192.79348837209304" width="56" height="56" as="geometry" />
        </mxCell>
        <mxCell id="29HYPzocDJOvQepny2lJ-155" value="三值化" style="text;html=1;align=center;verticalAlign=middle;resizable=0;points=[];autosize=1;fontSize=10.5;" vertex="1" parent="1">
          <mxGeometry x="126" y="172.79" width="50" height="20" as="geometry" />
        </mxCell>
        <mxCell id="29HYPzocDJOvQepny2lJ-156" value="输出" style="text;html=1;align=center;verticalAlign=middle;resizable=0;points=[];autosize=1;fontSize=10.5;" vertex="1" parent="1">
          <mxGeometry x="690" y="208.42" width="40" height="20" as="geometry" />
        </mxCell>
        <mxCell id="29HYPzocDJOvQepny2lJ-157" value="" style="whiteSpace=wrap;html=1;aspect=fixed;" vertex="1" parent="1">
          <mxGeometry x="40" y="192.79348837209304" width="56" height="56" as="geometry" />
        </mxCell>
        <mxCell id="29HYPzocDJOvQepny2lJ-158" value="输入" style="text;html=1;align=center;verticalAlign=middle;resizable=0;points=[];autosize=1;fontSize=10.5;" vertex="1" parent="1">
          <mxGeometry x="40" y="172.79" width="40" height="20" as="geometry" />
        </mxCell>
        <mxCell id="29HYPzocDJOvQepny2lJ-160" value="" style="endArrow=classic;html=1;" edge="1" parent="1">
          <mxGeometry x="37" y="69.43" width="50" height="50" as="geometry">
            <mxPoint x="100" y="226" as="sourcePoint" />
            <mxPoint x="123" y="226.42000000000002" as="targetPoint" />
          </mxGeometry>
        </mxCell>
        <mxCell id="29HYPzocDJOvQepny2lJ-206" value="" style="group" vertex="1" connectable="0" parent="1">
          <mxGeometry x="197" y="105" width="343" height="270" as="geometry" />
        </mxCell>
        <mxCell id="29HYPzocDJOvQepny2lJ-111" value="" style="rounded=1;whiteSpace=wrap;html=1;fillColor=none;" vertex="1" parent="29HYPzocDJOvQepny2lJ-206">
          <mxGeometry x="12.41451786193928" width="79.5542573193661" height="75.5813953488372" as="geometry" />
        </mxCell>
        <mxCell id="29HYPzocDJOvQepny2lJ-115" value="" style="whiteSpace=wrap;html=1;aspect=fixed;" vertex="1" parent="29HYPzocDJOvQepny2lJ-206">
          <mxGeometry x="27.869325812516788" y="95.93023255813952" width="40.18264840182649" height="40.18264840182649" as="geometry" />
        </mxCell>
        <mxCell id="29HYPzocDJOvQepny2lJ-116" value="" style="whiteSpace=wrap;html=1;aspect=fixed;" vertex="1" parent="29HYPzocDJOvQepny2lJ-206">
          <mxGeometry x="31.923045930701047" y="101.16279069767442" width="40.18264840182649" height="40.18264840182649" as="geometry" />
        </mxCell>
        <mxCell id="29HYPzocDJOvQepny2lJ-117" value="" style="whiteSpace=wrap;html=1;aspect=fixed;" vertex="1" parent="29HYPzocDJOvQepny2lJ-206">
          <mxGeometry x="35.47005103411228" y="104.65116279069768" width="40.18264840182649" height="40.18264840182649" as="geometry" />
        </mxCell>
        <mxCell id="29HYPzocDJOvQepny2lJ-118" value="" style="whiteSpace=wrap;html=1;aspect=fixed;" vertex="1" parent="29HYPzocDJOvQepny2lJ-206">
          <mxGeometry x="38.51034112275047" y="108.13953488372093" width="40.18264840182649" height="40.18264840182649" as="geometry" />
        </mxCell>
        <mxCell id="29HYPzocDJOvQepny2lJ-119" value="" style="endArrow=classic;html=1;" edge="1" parent="29HYPzocDJOvQepny2lJ-206">
          <mxGeometry x="-40.537201181842605" width="36.19392962664518" height="39.0625" as="geometry">
            <mxPoint x="52.4450040290089" y="95.93023255813958" as="sourcePoint" />
            <mxPoint x="52.4450040290089" y="78.48837209302326" as="targetPoint" />
          </mxGeometry>
        </mxCell>
        <mxCell id="29HYPzocDJOvQepny2lJ-120" value="" style="whiteSpace=wrap;html=1;aspect=fixed;" vertex="1" parent="29HYPzocDJOvQepny2lJ-206">
          <mxGeometry x="106.41015310233684" y="95.93023255813952" width="40.18264840182649" height="40.18264840182649" as="geometry" />
        </mxCell>
        <mxCell id="29HYPzocDJOvQepny2lJ-121" value="" style="whiteSpace=wrap;html=1;aspect=fixed;" vertex="1" parent="29HYPzocDJOvQepny2lJ-206">
          <mxGeometry x="110.46387322052111" y="101.16279069767442" width="40.18264840182649" height="40.18264840182649" as="geometry" />
        </mxCell>
        <mxCell id="29HYPzocDJOvQepny2lJ-122" value="" style="whiteSpace=wrap;html=1;aspect=fixed;" vertex="1" parent="29HYPzocDJOvQepny2lJ-206">
          <mxGeometry x="114.01087832393232" y="104.65116279069768" width="40.18264840182649" height="40.18264840182649" as="geometry" />
        </mxCell>
        <mxCell id="29HYPzocDJOvQepny2lJ-123" value="" style="whiteSpace=wrap;html=1;aspect=fixed;" vertex="1" parent="29HYPzocDJOvQepny2lJ-206">
          <mxGeometry x="117.0511684125705" y="108.13953488372093" width="40.18264840182649" height="40.18264840182649" as="geometry" />
        </mxCell>
        <mxCell id="29HYPzocDJOvQepny2lJ-124" value="" style="whiteSpace=wrap;html=1;aspect=fixed;fillColor=#ffe6cc;strokeColor=#d79b00;" vertex="1" parent="29HYPzocDJOvQepny2lJ-206">
          <mxGeometry x="25.58910824603814" y="11.627906976744185" width="40.18264840182649" height="40.18264840182649" as="geometry" />
        </mxCell>
        <mxCell id="29HYPzocDJOvQepny2lJ-125" value="" style="whiteSpace=wrap;html=1;aspect=fixed;fillColor=#ffe6cc;strokeColor=#d79b00;" vertex="1" parent="29HYPzocDJOvQepny2lJ-206">
          <mxGeometry x="29.642828364222396" y="16.860465116279066" width="40.18264840182649" height="40.18264840182649" as="geometry" />
        </mxCell>
        <mxCell id="29HYPzocDJOvQepny2lJ-126" value="" style="whiteSpace=wrap;html=1;aspect=fixed;fillColor=#ffe6cc;strokeColor=#d79b00;" vertex="1" parent="29HYPzocDJOvQepny2lJ-206">
          <mxGeometry x="33.189833467633626" y="20.348837209302328" width="40.18264840182649" height="40.18264840182649" as="geometry" />
        </mxCell>
        <mxCell id="29HYPzocDJOvQepny2lJ-127" value="" style="whiteSpace=wrap;html=1;aspect=fixed;fillColor=#ffe6cc;strokeColor=#d79b00;" vertex="1" parent="29HYPzocDJOvQepny2lJ-206">
          <mxGeometry x="36.230123556271835" y="23.83720930232558" width="40.18264840182649" height="40.18264840182649" as="geometry" />
        </mxCell>
        <mxCell id="29HYPzocDJOvQepny2lJ-128" value="" style="whiteSpace=wrap;html=1;aspect=fixed;fillColor=#dae8fc;strokeColor=#6c8ebf;" vertex="1" parent="29HYPzocDJOvQepny2lJ-206">
          <mxGeometry x="68.4065269943594" y="180.23255813953486" width="40.18264840182649" height="40.18264840182649" as="geometry" />
        </mxCell>
        <mxCell id="29HYPzocDJOvQepny2lJ-129" value="" style="whiteSpace=wrap;html=1;aspect=fixed;fillColor=#dae8fc;strokeColor=#6c8ebf;" vertex="1" parent="29HYPzocDJOvQepny2lJ-206">
          <mxGeometry x="72.46024711254367" y="185.46511627906978" width="40.18264840182649" height="40.18264840182649" as="geometry" />
        </mxCell>
        <mxCell id="29HYPzocDJOvQepny2lJ-130" value="" style="whiteSpace=wrap;html=1;aspect=fixed;fillColor=#dae8fc;strokeColor=#6c8ebf;" vertex="1" parent="29HYPzocDJOvQepny2lJ-206">
          <mxGeometry x="76.00725221595488" y="188.95348837209303" width="40.18264840182649" height="40.18264840182649" as="geometry" />
        </mxCell>
        <mxCell id="29HYPzocDJOvQepny2lJ-131" value="" style="whiteSpace=wrap;html=1;aspect=fixed;fillColor=#dae8fc;strokeColor=#6c8ebf;" vertex="1" parent="29HYPzocDJOvQepny2lJ-206">
          <mxGeometry x="79.04754230459307" y="192.44186046511626" width="40.18264840182649" height="40.18264840182649" as="geometry" />
        </mxCell>
        <mxCell id="29HYPzocDJOvQepny2lJ-132" value="" style="whiteSpace=wrap;html=1;aspect=fixed;fillColor=#dae8fc;strokeColor=#6c8ebf;" vertex="1" parent="29HYPzocDJOvQepny2lJ-206">
          <mxGeometry x="151.00107440236368" y="180.23255813953486" width="40.18264840182649" height="40.18264840182649" as="geometry" />
        </mxCell>
        <mxCell id="29HYPzocDJOvQepny2lJ-133" value="" style="whiteSpace=wrap;html=1;aspect=fixed;fillColor=#dae8fc;strokeColor=#6c8ebf;" vertex="1" parent="29HYPzocDJOvQepny2lJ-206">
          <mxGeometry x="155.05479452054794" y="185.46511627906978" width="40.18264840182649" height="40.18264840182649" as="geometry" />
        </mxCell>
        <mxCell id="29HYPzocDJOvQepny2lJ-134" value="" style="whiteSpace=wrap;html=1;aspect=fixed;fillColor=#dae8fc;strokeColor=#6c8ebf;" vertex="1" parent="29HYPzocDJOvQepny2lJ-206">
          <mxGeometry x="158.60179962395918" y="188.95348837209303" width="40.18264840182649" height="40.18264840182649" as="geometry" />
        </mxCell>
        <mxCell id="29HYPzocDJOvQepny2lJ-135" value="" style="whiteSpace=wrap;html=1;aspect=fixed;fillColor=#dae8fc;strokeColor=#6c8ebf;" vertex="1" parent="29HYPzocDJOvQepny2lJ-206">
          <mxGeometry x="161.64208971259734" y="192.44186046511626" width="40.18264840182649" height="40.18264840182649" as="geometry" />
        </mxCell>
        <mxCell id="29HYPzocDJOvQepny2lJ-136" value="" style="endArrow=classic;html=1;" edge="1" parent="29HYPzocDJOvQepny2lJ-206">
          <mxGeometry x="-40.537201181842605" width="36.19392962664518" height="39.0625" as="geometry">
            <mxPoint x="137.31976900349184" y="154.6511627906977" as="sourcePoint" />
            <mxPoint x="137.31976900349184" y="172.0930232558139" as="targetPoint" />
          </mxGeometry>
        </mxCell>
        <mxCell id="29HYPzocDJOvQepny2lJ-137" value="" style="endArrow=none;dashed=1;html=1;dashPattern=1 3;strokeWidth=2;fillColor=#dae8fc;strokeColor=#6c8ebf;" edge="1" parent="29HYPzocDJOvQepny2lJ-206">
          <mxGeometry x="-40.537201181842605" width="36.19392962664518" height="39.0625" as="geometry">
            <mxPoint x="127.43882621541766" y="226.1627906976745" as="sourcePoint" />
            <mxPoint x="141.1201316142896" y="226.1627906976745" as="targetPoint" />
          </mxGeometry>
        </mxCell>
        <mxCell id="29HYPzocDJOvQepny2lJ-138" value="" style="rounded=1;whiteSpace=wrap;html=1;fillColor=none;" vertex="1" parent="29HYPzocDJOvQepny2lJ-206">
          <mxGeometry x="62.07291176470588" y="174.42" width="150.49629411764707" height="65.58" as="geometry" />
        </mxCell>
        <mxCell id="29HYPzocDJOvQepny2lJ-139" value="" style="whiteSpace=wrap;html=1;aspect=fixed;fillColor=#d5e8d4;strokeColor=#82b366;" vertex="1" parent="29HYPzocDJOvQepny2lJ-206">
          <mxGeometry x="188.4979854955681" y="95.93023255813952" width="40.18264840182649" height="40.18264840182649" as="geometry" />
        </mxCell>
        <mxCell id="29HYPzocDJOvQepny2lJ-140" value="" style="whiteSpace=wrap;html=1;aspect=fixed;fillColor=#d5e8d4;strokeColor=#82b366;" vertex="1" parent="29HYPzocDJOvQepny2lJ-206">
          <mxGeometry x="192.55170561375238" y="101.16279069767442" width="40.18264840182649" height="40.18264840182649" as="geometry" />
        </mxCell>
        <mxCell id="29HYPzocDJOvQepny2lJ-141" value="" style="whiteSpace=wrap;html=1;aspect=fixed;fillColor=#d5e8d4;strokeColor=#82b366;" vertex="1" parent="29HYPzocDJOvQepny2lJ-206">
          <mxGeometry x="196.09871071716356" y="104.65116279069768" width="40.18264840182649" height="40.18264840182649" as="geometry" />
        </mxCell>
        <mxCell id="29HYPzocDJOvQepny2lJ-142" value="" style="whiteSpace=wrap;html=1;aspect=fixed;fillColor=#d5e8d4;strokeColor=#82b366;" vertex="1" parent="29HYPzocDJOvQepny2lJ-206">
          <mxGeometry x="199.13900080580174" y="108.13953488372093" width="40.18264840182649" height="40.18264840182649" as="geometry" />
        </mxCell>
        <mxCell id="29HYPzocDJOvQepny2lJ-143" value="" style="whiteSpace=wrap;html=1;aspect=fixed;fillColor=#d5e8d4;strokeColor=#82b366;" vertex="1" parent="29HYPzocDJOvQepny2lJ-206">
          <mxGeometry x="271.0925329035724" y="95.93023255813952" width="40.18264840182649" height="40.18264840182649" as="geometry" />
        </mxCell>
        <mxCell id="29HYPzocDJOvQepny2lJ-144" value="" style="whiteSpace=wrap;html=1;aspect=fixed;fillColor=#d5e8d4;strokeColor=#82b366;" vertex="1" parent="29HYPzocDJOvQepny2lJ-206">
          <mxGeometry x="275.1462530217566" y="101.16279069767442" width="40.18264840182649" height="40.18264840182649" as="geometry" />
        </mxCell>
        <mxCell id="29HYPzocDJOvQepny2lJ-145" value="" style="whiteSpace=wrap;html=1;aspect=fixed;fillColor=#d5e8d4;strokeColor=#82b366;" vertex="1" parent="29HYPzocDJOvQepny2lJ-206">
          <mxGeometry x="278.6932581251679" y="104.65116279069768" width="40.18264840182649" height="40.18264840182649" as="geometry" />
        </mxCell>
        <mxCell id="29HYPzocDJOvQepny2lJ-146" value="" style="whiteSpace=wrap;html=1;aspect=fixed;fillColor=#d5e8d4;strokeColor=#82b366;" vertex="1" parent="29HYPzocDJOvQepny2lJ-206">
          <mxGeometry x="281.7335482138061" y="108.13953488372093" width="40.18264840182649" height="40.18264840182649" as="geometry" />
        </mxCell>
        <mxCell id="29HYPzocDJOvQepny2lJ-147" value="" style="endArrow=none;dashed=1;html=1;dashPattern=1 3;strokeWidth=2;fillColor=#d5e8d4;strokeColor=#82b366;" edge="1" parent="29HYPzocDJOvQepny2lJ-206">
          <mxGeometry x="-40.537201181842605" width="36.19392962664518" height="39.0625" as="geometry">
            <mxPoint x="247.53028471662643" y="141.86046511627916" as="sourcePoint" />
            <mxPoint x="261.2115901154982" y="141.86046511627916" as="targetPoint" />
          </mxGeometry>
        </mxCell>
        <mxCell id="29HYPzocDJOvQepny2lJ-149" value="" style="rounded=1;whiteSpace=wrap;html=1;fillColor=none;" vertex="1" parent="29HYPzocDJOvQepny2lJ-206">
          <mxGeometry x="182.41547058823528" y="90.12" width="150.49629411764707" height="69.88" as="geometry" />
        </mxCell>
        <mxCell id="29HYPzocDJOvQepny2lJ-150" style="edgeStyle=orthogonalEdgeStyle;rounded=0;orthogonalLoop=1;jettySize=auto;html=1;exitX=1;exitY=0.5;exitDx=0;exitDy=0;entryX=0.5;entryY=0;entryDx=0;entryDy=0;" edge="1" parent="29HYPzocDJOvQepny2lJ-206" source="29HYPzocDJOvQepny2lJ-111" target="29HYPzocDJOvQepny2lJ-149">
          <mxGeometry x="-40.537201181842605" as="geometry" />
        </mxCell>
        <mxCell id="29HYPzocDJOvQepny2lJ-151" style="edgeStyle=orthogonalEdgeStyle;rounded=0;orthogonalLoop=1;jettySize=auto;html=1;exitX=1;exitY=0.5;exitDx=0;exitDy=0;entryX=0.5;entryY=1;entryDx=0;entryDy=0;" edge="1" parent="29HYPzocDJOvQepny2lJ-206" source="29HYPzocDJOvQepny2lJ-138" target="29HYPzocDJOvQepny2lJ-149">
          <mxGeometry x="-40.537201181842605" as="geometry" />
        </mxCell>
        <mxCell id="29HYPzocDJOvQepny2lJ-152" value="" style="endArrow=classic;html=1;" edge="1" parent="29HYPzocDJOvQepny2lJ-206">
          <mxGeometry x="-40.537201181842605" width="36.19392962664518" height="39.0625" as="geometry">
            <mxPoint y="122.6484375" as="sourcePoint" />
            <mxPoint x="21.71635777598711" y="122.6484375" as="targetPoint" />
          </mxGeometry>
        </mxCell>
        <mxCell id="29HYPzocDJOvQepny2lJ-153" value="" style="endArrow=classic;html=1;" edge="1" parent="29HYPzocDJOvQepny2lJ-206">
          <mxGeometry x="-40.537201181842605" width="36.19392962664518" height="39.0625" as="geometry">
            <mxPoint x="79.04754230459311" y="122.6484375" as="sourcePoint" />
            <mxPoint x="100.76390008058021" y="122.6484375" as="targetPoint" />
          </mxGeometry>
        </mxCell>
        <mxCell id="29HYPzocDJOvQepny2lJ-154" value="加权融合" style="text;html=1;align=center;verticalAlign=middle;resizable=0;points=[];autosize=1;fontSize=10.5;" vertex="1" parent="29HYPzocDJOvQepny2lJ-206">
          <mxGeometry x="168.5037941176471" y="11.629999999999995" width="60" height="20" as="geometry" />
        </mxCell>
        <mxCell id="29HYPzocDJOvQepny2lJ-212" value="" style="rounded=1;whiteSpace=wrap;html=1;fillColor=none;dashed=1;strokeColor=#FF6666;strokeWidth=2;" vertex="1" parent="29HYPzocDJOvQepny2lJ-206">
          <mxGeometry y="-45" width="340" height="315" as="geometry" />
        </mxCell>
        <mxCell id="29HYPzocDJOvQepny2lJ-113" value="第二层卷积核映射" style="text;html=1;align=center;verticalAlign=middle;resizable=0;points=[];autosize=1;fontSize=10.5;" vertex="1" parent="29HYPzocDJOvQepny2lJ-206">
          <mxGeometry x="91.96435294117643" y="245" width="110" height="20" as="geometry" />
        </mxCell>
        <mxCell id="29HYPzocDJOvQepny2lJ-161" value="全特征直方统计" style="rounded=1;whiteSpace=wrap;html=1;" vertex="1" parent="1">
          <mxGeometry x="550" y="200" width="120" height="60" as="geometry" />
        </mxCell>
        <mxCell id="29HYPzocDJOvQepny2lJ-208" style="edgeStyle=orthogonalEdgeStyle;rounded=0;orthogonalLoop=1;jettySize=auto;html=1;exitX=1;exitY=0.5;exitDx=0;exitDy=0;" edge="1" parent="1" source="29HYPzocDJOvQepny2lJ-149" target="29HYPzocDJOvQepny2lJ-161">
          <mxGeometry x="134" y="70" as="geometry">
            <mxPoint x="694" y="233.7209302325582" as="targetPoint" />
            <mxPoint x="527" y="230.05999999999995" as="sourcePoint" />
          </mxGeometry>
        </mxCell>
        <mxCell id="29HYPzocDJOvQepny2lJ-209" style="edgeStyle=orthogonalEdgeStyle;rounded=0;orthogonalLoop=1;jettySize=auto;html=1;exitX=1;exitY=0.5;exitDx=0;exitDy=0;" edge="1" parent="1">
          <mxGeometry x="277" y="68.42" as="geometry">
            <mxPoint x="693" y="228.42" as="targetPoint" />
            <mxPoint x="670" y="228.47999999999993" as="sourcePoint" />
          </mxGeometry>
        </mxCell>
        <mxCell id="29HYPzocDJOvQepny2lJ-211" value="" style="rounded=1;whiteSpace=wrap;html=1;fillColor=none;dashed=1;strokeColor=#FF6666;strokeWidth=2;" vertex="1" parent="1">
          <mxGeometry x="540" y="181.69" width="140" height="91.58" as="geometry" />
        </mxCell>
      </root>
    </mxGraphModel>
  </diagram>
</mxfile>
